<svg width="96" height="96" viewBox="0 0 96 96" fill="none" xmlns="http://www.w3.org/2000/svg">
  <rect width="96" height="96" rx="22" fill="#FF6B00"/>
  <line x1="14" y1="22" x2="30" y2="22" stroke="white" stroke-width="3.5" stroke-linecap="round" opacity="0.75"/>
  <line x1="14" y1="38" x2="30" y2="38" stroke="white" stroke-width="3.5" stroke-linecap="round" opacity="0.75"/>
  <path d="M30 22 Q30 30 38 30" stroke="white" stroke-width="3.5" stroke-linecap="round" fill="none" opacity="0.75"/>
  <path d="M30 38 Q30 30 38 30" stroke="white" stroke-width="3.5" stroke-linecap="round" fill="none" opacity="0.75"/>
  <line x1="38" y1="30" x2="50" y2="30" stroke="white" stroke-width="3.5" stroke-linecap="round" opacity="0.75"/>
  <line x1="14" y1="58" x2="30" y2="58" stroke="white" stroke-width="3.5" stroke-linecap="round" opacity="0.75"/>
  <line x1="14" y1="74" x2="30" y2="74" stroke="white" stroke-width="3.5" stroke-linecap="round" opacity="0.75"/>
  <path d="M30 58 Q30 66 38 66" stroke="white" stroke-width="3.5" stroke-linecap="round" fill="none" opacity="0.75"/>
  <path d="M30 74 Q30 66 38 66" stroke="white" stroke-width="3.5" stroke-linecap="round" fill="none" opacity="0.75"/>
  <line x1="38" y1="66" x2="50" y2="66" stroke="white" stroke-width="3.5" stroke-linecap="round" opacity="0.75"/>
  <path d="M50 30 Q50 48 58 48" stroke="white" stroke-width="3.5" stroke-linecap="round" fill="none"/>
  <path d="M50 66 Q50 48 58 48" stroke="white" stroke-width="3.5" stroke-linecap="round" fill="none"/>
  <path d="M58 48H78" stroke="white" stroke-width="4" stroke-linecap="round"/>
  <path d="M70 40L78 48L70 56" stroke="white" stroke-width="4" stroke-linecap="round" stroke-linejoin="round"/>
</svg>
